<svg id="Capa_1" enable-background="new 0 0 512 512" height="512" viewBox="0 0 512 512" width="512" xmlns="http://www.w3.org/2000/svg"><path d="m19.326 119.413c83.533-21.032 148.838 8.089 148.838 8.089h143.336l73.423 73.423c9.672 9.672 15.106 22.79 15.106 36.469v4.174c0 6.897 1.384 13.725 4.069 20.078l66.747 106.885 15.284 15.284c9.778 9.778 8.418 26-2.852 34.013l-48.228 34.29c-9.898 7.038-22.885 7.997-33.71 2.491l-16.463-8.375c-5.582-2.84-12.283-2.324-17.365 1.337l-23.108 16.645c-22.359 16.106-72.71 20.376-98.782 11.457l-35.391-12.107s-69.073 6.328-90.597 48.434h-100.307z" fill="#5a5a5a"/><path d="m486.128 383.814-15.284-15.284-66.747-106.885c-2.685-6.353-4.069-13.181-4.069-20.078v-4.174c0-13.678-5.434-26.797-15.106-36.469l-73.422-73.422h-55.5v350.815c27.409 5.071 68.732.067 88.401-14.101l23.108-16.645c5.082-3.661 11.783-4.177 17.365-1.337l16.464 8.375c10.825 5.506 23.812 4.547 33.71-2.491l48.228-34.29c11.27-8.014 12.63-24.236 2.852-34.014z" fill="#464646"/><path d="m163.639 197.666s-47.244 32.646-47.244 94.487c0 0 90.597 2.411 90.597-52 0 .001-.89-42.487-43.353-42.487z" fill="#464646"/><path d="m206.992 240.154s-.475-22.416-17.008-34.683c-13.405 12.737-36.769 40.911-37.945 83.348 25.36-5.034 54.953-17.567 54.953-48.665z" fill="#2d2d2d"/><path d="m341.814 91.817 28.329-84.532c1.931-5.762-5.527-9.94-9.433-5.285l-61.862 73.744c-20.028 23.875-47.403 40.438-77.846 47.104-29.146 6.382-61.369 13.49-62.902 14.053-11.823 4.346-20.869 15.105-22.225 28.717-1.638 16.438 9.03 31.952 24.978 36.261 5.7 1.54 11.367 1.547 16.636.335l.08-.018c.846-.197 38.979-12.082 75.524-23.488 41.804-13.046 74.805-45.367 88.721-86.891z" fill="#fad17f"/><path d="m360.71 2.001-61.862 73.744c-20.028 23.875-47.403 40.438-77.845 47.104-29.146 6.382-61.369 13.49-62.902 14.053-11.823 4.345-20.869 15.105-22.225 28.717-.333 3.345-.149 6.649.477 9.831.459-.057.921-.104 1.375-.175l.098-.015c1.044-.165 48.189-11.034 93.372-21.467 51.686-11.935 93.296-46.398 111.866-92.649l24.301-60.524c-2.083-1.041-4.776-.859-6.655 1.381z" fill="#ffeb99"/><g fill="#2d2d2d"><path d="m325.285 289.322-64.431-37.304 64.431-37.303 15.717 27.148-17.541 10.155 17.541 10.156z"/><path d="m434.813 410.082c-17.735-1.101-44.12-14.011-44.12-45.061h31.369c0 5.343 1.685 8.496 5.816 10.884 4.227 2.444 9.002 2.876 9.05 2.881l-.172-.011z"/></g></svg>