<svg width="512" height="512" viewBox="0 0 512 512" fill="none" xmlns="http://www.w3.org/2000/svg">
<g clip-path="url(#clip0)">
<path d="M425.46 318.703L417.93 324.407C414.581 326.954 410.613 328.68 406.421 329.339L363.665 336.362C298.825 347.008 248.528 398.776 239.79 463.89L238.4 474.303C237.588 480.301 231.743 484.249 225.866 482.797C111.115 454.482 48.6497 391.459 15.2807 324.305C15.2097 324.163 15.1387 324.031 15.0677 323.889C13.8907 321.504 12.7537 319.119 11.6377 316.734C14.4587 317.414 16.4787 317.921 17.9807 318.419C55.2267 324.792 108.446 323.818 151.842 283.66C184.409 253.508 223.644 256.106 261.579 258.613C312.688 261.992 356.834 264.915 379.77 187.745C379.79 187.664 379.811 187.593 379.841 187.512L380.389 185.848L387.057 189.907L393.664 193.926L393.187 194.474C381.364 213.655 381.252 237.91 392.974 252.362C395.745 255.782 398.272 258.806 400.707 261.719C416.255 280.331 424.526 290.236 425.46 318.703V318.703Z" fill="#FFF2E3"/>
<path d="M425.46 318.703L417.93 324.407C414.581 326.954 410.613 328.669 406.421 329.339L363.665 336.352C298.825 347.008 248.528 398.776 239.79 463.89L238.39 474.292C237.588 480.28 231.763 484.248 225.907 482.807C212.551 479.509 199.906 475.754 187.931 471.562L189.616 458.998V458.988C190.661 451.346 186.439 443.958 179.325 440.974C167.299 435.91 155.74 430.298 144.677 424.137L135.046 433.768C131.271 437.543 125.151 437.543 121.366 433.768L36.9597 349.362C33.1747 345.577 33.1747 339.457 36.9597 335.671L41.2117 331.419C29.0737 314.197 18.5397 295.574 9.69973 275.652C-14.2923 221.58 -19.4273 172.613 -20.5133 151.94C-20.8073 146.348 -16.3113 141.69 -10.7093 141.771L3.86373 141.974C8.93773 142.055 13.0887 146.023 13.3827 151.087C14.4787 169.639 19.3807 214.536 41.1797 263.118C48.1717 278.696 56.3217 293.371 65.5567 307.072L79.9677 292.661C83.7527 288.886 89.8727 288.886 93.6477 292.661L178.065 377.067C181.84 380.853 181.84 386.972 178.065 390.758L169.713 399.1C179.557 404.185 189.807 408.822 200.464 412.994C220.558 362.18 266.136 324.315 321.852 315.161L367.075 307.742C371.51 307.032 375.711 305.215 379.253 302.515L412.662 277.204C412.723 277.153 412.794 277.102 412.855 277.052C420.609 288.074 424.81 298.893 425.46 318.703V318.703Z" fill="#FEE7C9"/>
<path d="M387.062 189.909C344.957 331.587 229.836 221.836 157.014 289.24C111.262 331.587 55.4567 332.67 16.0417 325.811C15.7897 325.318 15.5387 324.814 15.2777 324.302C15.2097 324.167 15.1427 324.031 15.0647 323.886C-18.5543 255.939 -22.4573 183.816 -20.6303 139.145C-20.4083 133.706 -15.9063 129.424 -10.4623 129.44L68.5857 129.664L229.788 87.23L275.898 94.718C284.605 96.13 291.978 101.877 295.557 109.917L303.066 126.952C307.695 137.453 315.431 146.283 325.232 152.252L387.062 189.909Z" fill="#3F5959"/>
<path d="M116.825 315.827C90.3637 327.563 63.1387 330.097 39.2327 328.578C27.9227 312.15 18.0547 294.484 9.69572 275.647C-14.2893 221.585 -19.4263 172.63 -20.5103 151.945C-20.5783 150.726 -20.6363 146.508 -20.6943 140.664C-20.6763 140.166 -20.6573 139.671 -20.6373 139.179C-20.4153 133.724 -15.9253 129.424 -10.4663 129.44L13.7567 129.509C13.5437 140.5 13.2727 149.371 13.3797 151.084C14.4827 169.64 19.3877 214.532 41.1847 263.119C48.1697 278.696 56.3257 293.363 65.5557 307.082L79.9717 292.657C83.7447 288.884 89.8787 288.884 93.6517 292.657L116.825 315.827Z" fill="#384848"/>
<path d="M135.465 221.08H104.383C92.4747 221.08 82.8207 211.426 82.8207 199.518V153.006C82.8207 141.098 92.4747 131.444 104.383 131.444H135.465C147.373 131.444 157.027 141.098 157.027 153.006V199.518C157.027 211.426 147.373 221.08 135.465 221.08Z" fill="#384848"/>
<path d="M459.836 248.879V279.735C459.836 287.886 455.998 295.562 449.508 300.478L417.941 324.412C417.941 289.761 408.84 283.996 387.064 257.159C372.29 238.952 374.17 210.369 387.064 189.906L447.33 226.605C455.093 231.349 459.836 239.78 459.836 248.879V248.879Z" fill="#FCAC8D"/>
<path d="M459.833 248.882V279.734C459.833 287.883 455.997 295.566 449.512 300.478L417.939 324.409C417.939 303.117 414.499 292.725 406.796 281.653L412.662 277.208C419.533 272.012 423.582 263.893 423.582 255.267V222.619C423.582 218.316 422.577 214.145 420.72 210.41H420.73L447.33 226.607C455.094 231.345 459.833 239.779 459.833 248.882Z" fill="#FB946D"/>
<path d="M201.814 68.061C216.786 90.427 218.448 117.815 208.637 140.85C204.688 150.123 195.527 156.251 185.45 156.366C160.405 156.653 135.725 144.692 120.752 122.323C105.778 99.954 104.127 72.578 113.938 49.533C117.886 40.26 127.043 34.127 137.121 34.01C162.156 33.718 186.842 45.694 201.814 68.061V68.061Z" fill="#3F5959"/>
<path d="M208.634 140.85C204.686 150.126 195.532 156.256 185.454 156.367C178.502 156.448 171.571 155.586 164.873 153.799C170.688 151.221 175.488 146.512 178.066 140.454C187.88 117.417 186.215 90.0349 171.246 67.6679C160.438 51.5109 144.565 40.7839 127.15 36.1869C130.245 34.8169 133.625 34.0459 137.116 34.0049C162.153 33.7209 186.844 45.6959 201.814 68.0639C216.783 90.4309 218.447 117.812 208.634 140.85V140.85Z" fill="#384848"/>
<path d="M135.465 190.895H104.383C92.4747 190.895 82.8207 181.241 82.8207 169.333V122.821C82.8207 110.913 92.4747 101.259 104.383 101.259H135.465C147.373 101.259 157.027 110.913 157.027 122.821V169.333C157.027 181.241 147.373 190.895 135.465 190.895Z" fill="#FCC16D"/>
<path d="M157.017 122.827V169.337C157.017 181.239 147.379 190.899 135.455 190.899H109.221C108.207 190.899 107.194 190.834 106.224 190.683C116.703 189.217 124.767 180.204 124.767 169.336V122.826C124.767 111.937 116.703 102.946 106.224 101.479C107.194 101.328 108.208 101.263 109.221 101.263H135.455C147.378 101.264 157.017 110.903 157.017 122.827V122.827Z" fill="#FCA62F"/>
<path d="M257.556 429.504C256.211 434.744 250.821 437.893 245.613 436.427C190.855 421.015 143.978 395.799 106.16 361.392C74.0707 332.196 48.5107 296.454 30.1897 255.158C6.20669 201.097 1.06269 152.136 -0.019308 131.457C-0.311308 125.867 4.18269 121.2 9.77969 121.279L24.3567 121.486C29.4277 121.558 33.5777 125.527 33.8767 130.59C34.9747 149.147 39.8767 194.043 61.6767 242.625C78.1557 279.35 100.993 311.067 129.554 336.894C163.241 367.357 205.198 389.812 254.379 403.716C259.45 405.15 262.475 410.336 261.165 415.44L257.556 429.504Z" fill="#FC7D4B"/>
<path d="M208.736 387.45L183.195 412.992C160.682 402.137 139.987 389.202 121.237 374.235L145.347 350.125C164.299 364.811 185.477 377.292 208.736 387.45Z" fill="#FB5532"/>
<path d="M294.847 166.253C291.29 166.253 288.112 163.749 287.39 160.127C286.427 155.294 282.143 151.785 277.205 151.785C272.265 151.785 267.982 155.293 267.019 160.127C266.197 164.251 262.192 166.929 258.068 166.105C253.945 165.283 251.268 161.275 252.09 157.154C254.467 145.222 265.03 136.562 277.206 136.562C289.381 136.562 299.944 145.222 302.321 157.154C303.143 161.276 300.466 165.284 296.343 166.105C295.84 166.205 295.34 166.253 294.847 166.253Z" fill="#384848"/>
<path d="M444.576 233.742C443.287 233.742 441.979 233.414 440.782 232.724L432.849 228.152C429.207 226.053 427.956 221.399 430.055 217.757C432.154 214.114 436.807 212.865 440.45 214.963L448.383 219.535C452.025 221.634 453.276 226.288 451.177 229.93C449.768 232.375 447.208 233.742 444.576 233.742Z" fill="#3F5959"/>
</g>
<defs>
<clipPath id="clip0">
<rect width="512" height="512" fill="white"/>
</clipPath>
</defs>
</svg>
